<?xml version="1.0" encoding="utf-8"?>
<!-- Generator: Adobe Illustrator 16.0.0, SVG Export Plug-In . SVG Version: 6.00 Build 0)  -->
<!DOCTYPE svg PUBLIC "-//W3C//DTD SVG 1.1//EN" "http://www.w3.org/Graphics/SVG/1.1/DTD/svg11.dtd">
<svg version="1.1" id="Layer_1" xmlns="http://www.w3.org/2000/svg" xmlns:xlink="http://www.w3.org/1999/xlink" x="0px" y="0px"
	 width="1400px" height="180px" viewBox="0 0 1400 180" enable-background="new 0 0 1400 180" xml:space="preserve">
<g>
	<path fill="#010101" d="M796.423,106.631c-3.746-4.048-5.617-9.234-5.617-15.561s1.872-11.525,5.617-15.601
		c3.745-4.073,8.313-6.11,13.702-6.11s9.527,2,12.411,5.998V55.999h12.981v56.174h-12.98v-6.149
		c-3.139,4.455-7.338,6.681-12.602,6.681C804.671,112.704,800.168,110.681,796.423,106.631z M819.729,98.736
		c1.871-1.821,2.809-4.402,2.809-7.742s-0.938-5.908-2.809-7.705c-1.873-1.797-4.023-2.695-6.453-2.695
		c-2.429,0-4.58,0.911-6.453,2.733c-1.873,1.821-2.809,4.403-2.809,7.743s0.936,5.908,2.809,7.705s4.023,2.694,6.453,2.694
		C815.706,101.47,817.855,100.559,819.729,98.736z"/>
	<path fill="#010101" d="M849.409,106.631c-3.746-4.048-5.618-9.234-5.618-15.561s1.872-11.525,5.618-15.601
		c3.743-4.073,8.312-6.11,13.702-6.11c5.39,0,9.525,2,12.41,5.998v-5.543h12.981v42.358h-12.981v-6.149
		c-3.138,4.455-7.338,6.681-12.601,6.681C857.656,112.704,853.152,110.681,849.409,106.631z M872.714,98.736
		c1.871-1.821,2.808-4.402,2.808-7.742s-0.937-5.908-2.808-7.705c-1.873-1.797-4.022-2.695-6.453-2.695
		c-2.429,0-4.58,0.911-6.452,2.733C857.936,85.148,857,87.73,857,91.07s0.936,5.908,2.809,7.705
		c1.872,1.797,4.023,2.694,6.452,2.694C868.691,101.469,870.841,100.559,872.714,98.736z"/>
	<path fill="#010101" d="M897.005,82.566c0-3.744,1.595-6.881,4.782-9.412c3.188-2.53,7.502-3.797,12.943-3.797
		c5.439,0,9.83,1.241,13.17,3.721c3.34,2.48,5.11,5.871,5.313,10.172H919.93c-0.152-1.467-0.658-2.467-1.519-2.999
		c-0.861-0.531-2.152-0.797-3.872-0.797c-3.391,0-5.085,1.038-5.085,3.112c0,1.873,2.073,3.164,6.224,3.871
		c4.2,0.709,8.021,1.797,11.463,3.266c1.771,0.709,3.25,1.885,4.44,3.529c1.188,1.646,1.782,3.656,1.782,6.035
		c0,3.948-1.695,7.174-5.086,9.68c-3.391,2.505-7.666,3.757-12.828,3.757s-9.465-1.177-12.904-3.529
		c-3.441-2.354-5.314-5.833-5.618-10.438h13.285c0.353,2.582,2.175,3.871,5.465,3.871c1.519,0,2.771-0.353,3.759-1.063
		c0.986-0.708,1.479-1.619,1.479-2.732s-0.824-1.998-2.468-2.656c-1.646-0.657-3.631-1.215-5.959-1.67
		c-2.328-0.457-4.668-1.025-7.021-1.709s-4.354-1.871-5.997-3.567C897.827,87.515,897.005,85.3,897.005,82.566z"/>
	<path fill="#010101" d="M953.178,105.074c0,2-0.683,3.682-2.05,5.049c-1.366,1.365-3.049,2.05-5.047,2.05
		c-2,0-3.683-0.685-5.048-2.05c-1.367-1.367-2.051-3.049-2.051-5.049c0-1.998,0.684-3.682,2.051-5.047
		c1.365-1.366,3.048-2.049,5.048-2.049c1.998,0,3.681,0.683,5.047,2.049C952.495,101.393,953.178,103.077,953.178,105.074z"/>
</g>
<g transform="matrix(.486502 0 0 .486502 4.830457 17.448139)">
	<path fill="#E12529" d="M2406.424,104.874h-20.438c-0.538,0.038-0.972,0.472-1.008,1.014v11.823c0.036,0.54,0.47,0.972,1.008,1.012
		h20.438c0.542-0.04,0.976-0.472,1.012-1.012v-11.823C2407.436,105.212,2407.098,104.874,2406.424,104.874z M2406.091,122.436
		h-39.187c-0.51,0-1.184,0.51-1.349,1.018l-5.074,19.254l-0.333,1.014l-5.91-20.607c-0.168-0.508-0.678-1.012-1.353-1.012h-15.199
		c-0.51,0-1.184,0.504-1.357,1.012l-5.737,19.254l-0.337,1.016l-0.337-1.016l-4.733-18.915c-0.165-0.508-0.671-1.018-1.349-1.018
		h-30.571v-16.548c0-0.508-0.675-1.182-1.353-0.845l-19.419,5.912c-0.51,0.171-1.02,0.506-1.02,1.016v10.468h-5.062
		c-0.542,0.04-0.972,0.476-1.016,1.018v14.694c0.044,0.542,0.474,0.976,1.016,1.012h5.062v17.907c0,12.664,6.929,18.58,19.768,18.58
		c5.235,0,10.466-1.186,13.843-3.045v-15.199c0-0.847-0.67-1.016-1.008-0.847c-2.027,0.847-3.713,1.18-5.572,1.18
		c-3.38,0-5.239-1.349-5.239-5.404v-13.174h10.98c0.538-0.038,0.972-0.47,1.012-1.012v-12.331l14.529,48.306
		c0.165,0.506,0.67,1.014,1.349,1.014h16.042c0.506,0,1.184-0.508,1.353-1.014l6.925-21.45l6.757,21.282
		c0.173,0.504,0.839,1.014,1.353,1.014h16.046c0.506,0,1.18-0.51,1.349-1.014l14.698-48.471v48.471
		c0.04,0.544,0.47,0.974,1.008,1.014h19.595c0.542-0.04,0.968-0.47,1.011-1.014v-50.5
		C2407.098,122.778,2406.593,122.436,2406.091,122.436z M2431.933,104.874h-19.599c-0.538,0.038-0.971,0.472-1.008,1.014v68.066
		c0.036,0.544,0.47,0.974,1.008,1.014h19.599c0.542-0.04,0.968-0.47,1.008-1.014v-68.066
		C2432.941,105.212,2432.439,104.874,2431.933,104.874z M2458.112,104.874h-20.438c-0.542,0.038-0.976,0.472-1.02,1.014v11.823
		c0.044,0.54,0.478,0.972,1.02,1.012h20.438c0.538-0.04,0.968-0.472,1.012-1.012v-11.823
		C2459.124,105.212,2458.783,104.874,2458.112,104.874z M2457.771,122.436h-19.591c-0.542,0.04-0.971,0.478-1.012,1.018v50.5
		c0.04,0.544,0.47,0.974,1.012,1.014h19.591c0.542-0.04,0.972-0.47,1.012-1.014v-50.5
		C2458.783,122.778,2458.277,122.436,2457.771,122.436z M2490.197,121.087c-17.223,0-29.387,12.668-29.387,27.36v0.173
		c0,14.694,12.164,27.191,29.222,27.191c17.227,0,29.387-12.664,29.387-27.364v-0.165
		C2519.588,133.585,2507.428,121.087,2490.197,121.087z M2498.648,148.62c0,4.898-3.549,9.117-8.451,9.117
		c-4.725,0-8.611-4.049-8.611-9.29v-0.165c0-4.9,3.545-9.123,8.447-9.123c4.729,0,8.615,4.055,8.615,9.288V148.62z M2193.946,82.242
		c-31.752,0-57.59,25.838-57.59,57.596c0,31.754,25.838,57.596,57.59,57.596c31.928,0.169,57.766-25.674,57.766-57.596
		S2225.874,82.242,2193.946,82.242z M2193.946,182.401c-23.301,0-42.391-19.088-42.391-42.563c0-23.311,19.09-42.396,42.391-42.396
		c23.481,0,42.567,19.088,42.567,42.396C2236.513,163.313,2217.427,182.401,2193.946,182.401z"/>
	<circle fill="#E12529" cx="2208.306" cy="125.479" r="11.992"/>
	<circle fill="#E12529" cx="2208.306" cy="154.196" r="11.992"/>
	<circle fill="#E12529" cx="2179.594" cy="154.196" r="11.992"/>
	<circle fill="#E12529" cx="2179.594" cy="125.479" r="11.992"/>
</g>
<g>
	<path fill="#BDBEC0" d="M1001.549,78.607v8.397h8.051v3.621h-8.051V99.1h-3.775v-8.474h-8.049v-3.621h8.049v-8.397H1001.549z"/>
</g>
<g>
	<g>
		<g>
			<g>
				<g>
					<path fill="#C9C9C9" d="M1231.772,155.877c0,2.395,1.948,4.343,4.344,4.343c2.395,0,4.343-1.948,4.343-4.343
						c0-2.396-1.948-4.344-4.343-4.344C1233.721,151.533,1231.772,153.481,1231.772,155.877z M1238.234,155.877
						c0,1.167-0.951,2.118-2.118,2.118c-1.168,0-2.119-0.951-2.119-2.118c0-1.168,0.951-2.119,2.119-2.119
						C1237.283,153.758,1238.234,154.709,1238.234,155.877z"/>
				</g>
			</g>
		</g>
	</g>
	<g>
		<g>
			<g>
				<g>
					<path fill="#C9C9C9" d="M1309.708,130.355c0,2.396,1.949,4.344,4.345,4.344c2.394,0,4.341-1.948,4.341-4.344
						c0-2.394-1.947-4.343-4.341-4.343C1311.657,126.013,1309.708,127.962,1309.708,130.355z M1316.169,130.355
						c0,1.168-0.95,2.119-2.116,2.119c-1.169,0-2.119-0.951-2.119-2.119c0-1.166,0.95-2.117,2.119-2.117
						C1315.219,128.238,1316.169,129.189,1316.169,130.355z"/>
				</g>
			</g>
		</g>
	</g>
	<g>
		<g>
			<g>
				<g>
					<path fill="#C9C9C9" d="M1303.596,115.778c0,2.394,1.949,4.342,4.342,4.342c2.396,0,4.344-1.948,4.344-4.342
						c0-2.396-1.947-4.345-4.344-4.345C1305.545,111.434,1303.596,113.383,1303.596,115.778z M1310.057,115.778
						c0,1.166-0.951,2.117-2.119,2.117c-1.167,0-2.117-0.951-2.117-2.117c0-1.168,0.95-2.119,2.117-2.119
						C1309.105,113.659,1310.057,114.61,1310.057,115.778z"/>
				</g>
			</g>
		</g>
	</g>
	<g>
		<g>
			<g>
				<g>
					<path fill="#C9C9C9" d="M1322.11,123.413c0,2.396,1.948,4.343,4.343,4.343c2.396,0,4.344-1.947,4.344-4.343
						c0-2.395-1.948-4.344-4.344-4.344C1324.059,119.069,1322.11,121.019,1322.11,123.413z M1328.57,123.413
						c0,1.168-0.949,2.118-2.117,2.118s-2.118-0.95-2.118-2.118s0.95-2.117,2.118-2.117S1328.57,122.245,1328.57,123.413z"/>
				</g>
			</g>
		</g>
	</g>
	<g>
		<g>
			<g>
				<g>
					<path fill="#C9C9C9" d="M1319.73,137.3c0,2.394,1.949,4.342,4.344,4.342s4.342-1.948,4.342-4.342
						c0-2.396-1.947-4.345-4.342-4.345S1319.73,134.904,1319.73,137.3z M1326.192,137.3c0,1.168-0.951,2.117-2.118,2.117
						c-1.168,0-2.117-0.949-2.117-2.117c0-1.169,0.949-2.118,2.117-2.118C1325.241,135.182,1326.192,136.131,1326.192,137.3z"/>
				</g>
			</g>
		</g>
	</g>
	<g>
		<g>
			<g>
				<g>
					<path fill="#C9C9C9" d="M1322.949,153.025c0,2.394,1.947,4.343,4.342,4.343c2.396,0,4.343-1.949,4.343-4.343
						s-1.947-4.343-4.343-4.343C1324.896,148.683,1322.949,150.632,1322.949,153.025z M1329.41,153.025
						c0,1.167-0.951,2.118-2.119,2.118s-2.119-0.951-2.119-2.118c0-1.168,0.951-2.118,2.119-2.118S1329.41,151.857,1329.41,153.025z
						"/>
				</g>
			</g>
		</g>
	</g>
	<g>
		<g>
			<g>
				<g>
					<path fill="#C9C9C9" d="M1308.117,162.608c0,2.394,1.949,4.343,4.343,4.343c2.396,0,4.344-1.949,4.344-4.343
						c0-2.396-1.948-4.345-4.344-4.345C1310.066,158.264,1308.117,160.213,1308.117,162.608z M1314.578,162.608
						c0,1.166-0.95,2.117-2.118,2.117c-1.167,0-2.118-0.951-2.118-2.117c0-1.168,0.951-2.118,2.118-2.118
						C1313.628,160.49,1314.578,161.44,1314.578,162.608z"/>
				</g>
			</g>
		</g>
	</g>
	<g>
		<g>
			<g>
				<g>
					<path fill="#C9C9C9" d="M1281.869,161.48c0,2.396,1.947,4.345,4.344,4.345c2.393,0,4.341-1.949,4.341-4.345
						c0-2.395-1.948-4.342-4.341-4.342C1283.816,157.139,1281.869,159.086,1281.869,161.48z M1288.329,161.48
						c0,1.169-0.949,2.117-2.116,2.117c-1.168,0-2.118-0.948-2.118-2.117c0-1.168,0.95-2.117,2.118-2.117
						C1287.38,159.363,1288.329,160.313,1288.329,161.48z"/>
				</g>
			</g>
		</g>
	</g>
	<g>
		<g>
			<g>
				<g>
					<path fill="#C9C9C9" d="M1266.193,170.786c0,2.396,1.949,4.344,4.343,4.344c2.396,0,4.344-1.948,4.344-4.344
						s-1.948-4.343-4.344-4.343C1268.143,166.443,1266.193,168.391,1266.193,170.786z M1272.655,170.786
						c0,1.168-0.951,2.118-2.119,2.118c-1.167,0-2.118-0.95-2.118-2.118s0.951-2.118,2.118-2.118
						C1271.704,168.668,1272.655,169.618,1272.655,170.786z"/>
				</g>
			</g>
		</g>
	</g>
	<g>
		<g>
			<g>
				<g>
					<path fill="#C9C9C9" d="M1247.862,174.664c0,2.394,1.947,4.342,4.343,4.342c2.394,0,4.342-1.948,4.342-4.342
						c0-2.396-1.948-4.345-4.342-4.345C1249.81,170.319,1247.862,172.269,1247.862,174.664z M1254.322,174.664
						c0,1.168-0.949,2.117-2.117,2.117c-1.167,0-2.118-0.949-2.118-2.117s0.951-2.118,2.118-2.118
						C1253.373,172.546,1254.322,173.496,1254.322,174.664z"/>
				</g>
			</g>
		</g>
	</g>
	<g>
		<g>
			<g>
				<g>
					<path fill="#C9C9C9" d="M1240.494,207.608c0,2.395,1.947,4.344,4.343,4.344c2.394,0,4.343-1.949,4.343-4.344
						s-1.949-4.343-4.343-4.343C1242.441,203.266,1240.494,205.214,1240.494,207.608z M1246.955,207.608
						c0,1.168-0.95,2.117-2.118,2.117s-2.118-0.949-2.118-2.117c0-1.169,0.95-2.118,2.118-2.118S1246.955,206.439,1246.955,207.608z
						"/>
				</g>
			</g>
		</g>
	</g>
	<g>
		<g>
			<g>
				<g>
					<path fill="#C9C9C9" d="M1223.306,207.026c0,2.396,1.947,4.344,4.343,4.344s4.343-1.948,4.343-4.344
						c0-2.395-1.947-4.342-4.343-4.342S1223.306,204.632,1223.306,207.026z M1229.766,207.026c0,1.168-0.949,2.119-2.117,2.119
						s-2.118-0.951-2.118-2.119c0-1.167,0.95-2.116,2.118-2.116S1229.766,205.859,1229.766,207.026z"/>
				</g>
			</g>
		</g>
	</g>
	<g>
		<g>
			<g>
				<g>
					<path fill="#C9C9C9" d="M1257.285,155.988c0,2.395,1.947,4.343,4.343,4.343s4.343-1.948,4.343-4.343
						c0-2.396-1.947-4.344-4.343-4.344S1257.285,153.593,1257.285,155.988z M1263.746,155.988c0,1.168-0.949,2.118-2.118,2.118
						c-1.168,0-2.117-0.95-2.117-2.118s0.949-2.117,2.117-2.117C1262.797,153.871,1263.746,154.82,1263.746,155.988z"/>
				</g>
			</g>
		</g>
	</g>
	<g>
		<g>
			<g>
				<g>
					<path fill="#C9C9C9" d="M1287.922,211.209c0,2.395,1.947,4.343,4.344,4.343c2.393,0,4.343-1.948,4.343-4.343
						s-1.95-4.344-4.343-4.344C1289.869,206.865,1287.922,208.814,1287.922,211.209z M1294.384,211.209
						c0,1.167-0.95,2.118-2.118,2.118c-1.169,0-2.117-0.951-2.117-2.118c0-1.168,0.948-2.117,2.117-2.117
						C1293.434,209.092,1294.384,210.041,1294.384,211.209z"/>
				</g>
			</g>
		</g>
	</g>
	<g>
		<g>
			<g>
				<g>
					<path fill="#C9C9C9" d="M1298.26,193.208c0,2.394,1.949,4.343,4.343,4.343c2.396,0,4.344-1.949,4.344-4.343
						c0-2.396-1.948-4.343-4.344-4.343C1300.209,188.865,1298.26,190.813,1298.26,193.208z M1304.722,193.208
						c0,1.166-0.951,2.117-2.119,2.117c-1.167,0-2.118-0.951-2.118-2.117c0-1.168,0.951-2.118,2.118-2.118
						C1303.771,191.09,1304.722,192.04,1304.722,193.208z"/>
				</g>
			</g>
		</g>
	</g>
	<g>
		<g>
			<g>
				<g>
					<path fill="#C9C9C9" d="M1309.389,221.546c0,2.396,1.947,4.344,4.342,4.344c2.396,0,4.345-1.948,4.345-4.344
						c0-2.394-1.949-4.343-4.345-4.343C1311.336,217.203,1309.389,219.152,1309.389,221.546z M1315.849,221.546
						c0,1.168-0.949,2.118-2.118,2.118c-1.168,0-2.117-0.95-2.117-2.118s0.949-2.118,2.117-2.118
						C1314.899,219.428,1315.849,220.378,1315.849,221.546z"/>
				</g>
			</g>
		</g>
	</g>
	<g>
		<g>
			<g>
				<g>
					<path fill="#C9C9C9" d="M1300.556,210.8c0,2.394,1.947,4.342,4.344,4.342c2.396,0,4.341-1.948,4.341-4.342
						c0-2.396-1.945-4.343-4.341-4.343C1302.503,206.457,1300.556,208.404,1300.556,210.8z M1307.016,210.8
						c0,1.168-0.948,2.116-2.116,2.116s-2.118-0.948-2.118-2.116c0-1.17,0.95-2.118,2.118-2.118S1307.016,209.63,1307.016,210.8z"/>
				</g>
			</g>
		</g>
	</g>
	<g>
		<g>
			<g>
				<g>
					<path fill="#C9C9C9" d="M1278.271,188.92c0,2.396,1.947,4.345,4.343,4.345c2.394,0,4.343-1.949,4.343-4.345
						c0-2.394-1.949-4.343-4.343-4.343C1280.219,184.577,1278.271,186.526,1278.271,188.92z M1284.732,188.92
						c0,1.168-0.95,2.118-2.118,2.118c-1.167,0-2.118-0.95-2.118-2.118s0.951-2.117,2.118-2.117
						C1283.782,186.803,1284.732,187.752,1284.732,188.92z"/>
				</g>
			</g>
		</g>
	</g>
	<g>
		<g>
			<g>
				<polygon fill="#C9C9C9" points="1344.456,129.244 1316.583,129.244 1316.583,131.469 1343.534,131.469 1357.42,145.354 
					1399.027,145.354 1399.027,143.13 1358.342,143.13 				"/>
			</g>
		</g>
	</g>
	<g>
		<g>
			<g>
				<polygon fill="#C9C9C9" points="1346.394,122.301 1328.989,122.301 1328.989,124.526 1345.472,124.526 1359.359,138.411 
					1399.027,138.411 1399.027,136.187 1360.279,136.187 				"/>
			</g>
		</g>
	</g>
	<g>
		<g>
			<g>
				<polygon fill="#C9C9C9" points="1341.003,136.445 1326.453,136.445 1326.453,138.672 1340.081,138.672 1354.32,152.911 
					1399.027,152.911 1399.027,150.687 1355.242,150.687 				"/>
			</g>
		</g>
	</g>
	<g>
		<g>
			<g>
				<polygon fill="#C9C9C9" points="1333.545,250.266 1295.313,212.036 1293.74,213.609 1332.623,252.492 1392.682,252.492 
					1395.888,255.699 1399.027,255.699 1399.027,255.69 1393.603,250.266 				"/>
			</g>
		</g>
	</g>
	<g>
		<g>
			<g>
				<polygon fill="#C9C9C9" points="1336.742,243.484 1316.288,223.032 1314.716,224.606 1335.818,245.711 1395.877,245.711 
					1399.027,248.859 1399.027,245.714 1396.8,243.484 				"/>
			</g>
		</g>
	</g>
	<g>
		<g>
			<g>
				<g>
					<path fill="#C9C9C9" d="M1356.073,159.22c0,2.394,1.947,4.343,4.341,4.343c2.397,0,4.345-1.949,4.345-4.343
						c0-2.396-1.947-4.345-4.345-4.345C1358.021,154.875,1356.073,156.824,1356.073,159.22z M1362.534,159.22
						c0,1.166-0.95,2.117-2.12,2.117c-1.166,0-2.116-0.951-2.116-2.117c0-1.168,0.95-2.118,2.116-2.118
						C1361.584,157.102,1362.534,158.052,1362.534,159.22z"/>
				</g>
			</g>
		</g>
	</g>
	<g>
		<g>
			<g>
				<g>
					<path fill="#C9C9C9" d="M1341.602,161.48c0,2.396,1.948,4.345,4.343,4.345c2.396,0,4.343-1.949,4.343-4.345
						c0-2.395-1.947-4.342-4.343-4.342C1343.55,157.139,1341.602,159.086,1341.602,161.48z M1348.063,161.48
						c0,1.169-0.951,2.117-2.119,2.117c-1.169,0-2.118-0.948-2.118-2.117c0-1.168,0.949-2.117,2.118-2.117
						C1347.112,159.363,1348.063,160.313,1348.063,161.48z"/>
				</g>
			</g>
		</g>
	</g>
	<g>
		<g>
			<g>
				<g>
					<path fill="#C9C9C9" d="M1331.738,175.347c0,2.395,1.948,4.343,4.344,4.343c2.395,0,4.342-1.948,4.342-4.343
						s-1.947-4.342-4.342-4.342C1333.687,171.005,1331.738,172.952,1331.738,175.347z M1338.2,175.347
						c0,1.17-0.95,2.118-2.118,2.118s-2.117-0.948-2.117-2.118c0-1.168,0.949-2.116,2.117-2.116S1338.2,174.179,1338.2,175.347z"/>
				</g>
			</g>
		</g>
	</g>
	<g>
		<g>
			<g>
				<g>
					<path fill="#C9C9C9" d="M1310.445,178.712c0,2.396,1.948,4.343,4.344,4.343c2.395,0,4.342-1.946,4.342-4.343
						c0-2.396-1.947-4.343-4.342-4.343C1312.394,174.369,1310.445,176.316,1310.445,178.712z M1316.907,178.712
						c0,1.169-0.95,2.117-2.118,2.117s-2.117-0.948-2.117-2.117c0-1.168,0.949-2.116,2.117-2.116S1316.907,177.544,1316.907,178.712
						z"/>
				</g>
			</g>
		</g>
	</g>
	<g>
		<g>
			<g>
				<g>
					<path fill="#C9C9C9" d="M1366.91,211.683c0,2.396,1.949,4.343,4.343,4.343c2.396,0,4.343-1.947,4.343-4.343
						c0-2.394-1.947-4.343-4.343-4.343C1368.859,207.34,1366.91,209.289,1366.91,211.683z M1373.372,211.683
						c0,1.168-0.951,2.118-2.119,2.118c-1.167,0-2.118-0.95-2.118-2.118s0.951-2.117,2.118-2.117
						C1372.421,209.565,1373.372,210.515,1373.372,211.683z"/>
				</g>
			</g>
		</g>
	</g>
	<g>
		<g>
			<g>
				<g>
					<path fill="#C9C9C9" d="M1370.141,158.386c0,2.395,1.947,4.342,4.342,4.342c2.396,0,4.344-1.947,4.344-4.342
						s-1.947-4.343-4.344-4.343C1372.088,154.043,1370.141,155.991,1370.141,158.386z M1376.602,158.386
						c0,1.168-0.951,2.117-2.119,2.117c-1.167,0-2.116-0.949-2.116-2.117c0-1.169,0.949-2.118,2.116-2.118
						C1375.65,156.268,1376.602,157.217,1376.602,158.386z"/>
				</g>
			</g>
		</g>
	</g>
	<g>
		<g>
			<g>
				<g>
					<path fill="#C9C9C9" d="M1362.534,176.807c0,2.396,1.947,4.344,4.342,4.344c2.396,0,4.343-1.948,4.343-4.344
						s-1.947-4.343-4.343-4.343C1364.481,172.464,1362.534,174.411,1362.534,176.807z M1368.994,176.807
						c0,1.168-0.948,2.118-2.118,2.118c-1.166,0-2.117-0.95-2.117-2.118s0.951-2.117,2.117-2.117
						C1368.046,174.689,1368.994,175.639,1368.994,176.807z"/>
				</g>
			</g>
		</g>
	</g>
	<g>
		<g>
			<g>
				<g>
					<path fill="#C9C9C9" d="M1373.372,203.089c0,2.396,1.947,4.345,4.341,4.345c2.396,0,4.344-1.949,4.344-4.345
						c0-2.394-1.948-4.342-4.344-4.342C1375.319,198.747,1373.372,200.695,1373.372,203.089z M1379.831,203.089
						c0,1.169-0.95,2.119-2.118,2.119s-2.117-0.95-2.117-2.119c0-1.166,0.949-2.117,2.117-2.117S1379.831,201.923,1379.831,203.089z
						"/>
				</g>
			</g>
		</g>
	</g>
	<g>
		<g>
			<g>
				<g>
					<path fill="#C9C9C9" d="M1332.531,188.356c0,2.394,1.947,4.343,4.343,4.343c2.396,0,4.343-1.949,4.343-4.343
						c0-2.396-1.946-4.343-4.343-4.343C1334.479,184.014,1332.531,185.961,1332.531,188.356z M1338.993,188.356
						c0,1.167-0.949,2.118-2.119,2.118c-1.167,0-2.116-0.951-2.116-2.118c0-1.168,0.949-2.117,2.116-2.117
						C1338.044,186.239,1338.993,187.188,1338.993,188.356z"/>
				</g>
			</g>
		</g>
	</g>
	<g>
		<g>
			<g>
				<g>
					<path fill="#C9C9C9" d="M1342.47,221.03c0,2.396,1.948,4.344,4.344,4.344c2.394,0,4.341-1.948,4.341-4.344
						c0-2.394-1.947-4.343-4.341-4.343C1344.418,216.688,1342.47,218.637,1342.47,221.03z M1348.932,221.03
						c0,1.168-0.95,2.119-2.118,2.119s-2.118-0.951-2.118-2.119c0-1.167,0.95-2.118,2.118-2.118S1348.932,219.863,1348.932,221.03z"
						/>
				</g>
			</g>
		</g>
	</g>
	<g>
		<g>
			<g>
				<polygon fill="#C9C9C9" points="1393.943,191.822 1362.817,160.694 1361.243,162.268 1391.721,192.743 1391.721,221.785 
					1399.027,229.091 1399.027,225.946 1393.943,220.862 				"/>
			</g>
		</g>
	</g>
	<g>
		<g>
			<g>
				<rect x="1376.867" y="157.273" fill="#C9C9C9" width="22.16" height="2.225"/>
			</g>
		</g>
	</g>
	<g>
		<g>
			<g>
				<polygon fill="#C9C9C9" points="1385.443,177.269 1398.802,190.628 1398.802,218.777 1399.027,219.003 1399.027,187.706 
					1387.666,176.346 1387.666,164.536 1399.027,164.536 1399.027,162.31 1385.443,162.31 				"/>
			</g>
		</g>
	</g>
	<g>
		<g>
			<g>
				<polygon fill="#C9C9C9" points="1391.869,176.247 1399.027,183.405 1399.027,180.258 1394.096,175.326 1394.096,169.186 
					1399.027,169.186 1399.027,166.959 1391.869,166.959 				"/>
			</g>
		</g>
	</g>
	<g>
		<g>
			<g>
				<polygon fill="#C9C9C9" points="1323.666,215.547 1323.666,222.328 1339.622,238.284 1388.443,238.284 1396.739,246.58 
					1398.313,245.006 1389.365,236.059 1340.543,236.059 1325.891,221.408 1325.891,214.625 1305.125,193.86 1303.553,195.433 				
					"/>
			</g>
		</g>
	</g>
	<g>
		<g>
			<g>
				<polygon fill="#C9C9C9" points="1335.82,163.72 1361.57,189.47 1378.929,189.47 1378.929,187.245 1362.49,187.245 
					1336.743,161.495 1315.428,161.495 1315.428,163.72 				"/>
			</g>
		</g>
	</g>
	<g>
		<g>
			<g>
				<polygon fill="#C9C9C9" points="1329.997,151.912 1329.997,154.139 1341.615,154.139 1349.369,146.385 1347.795,144.813 
					1340.695,151.912 				"/>
			</g>
		</g>
	</g>
	<g>
		<g>
			<g>
				<polygon fill="#C9C9C9" points="1354.271,170.955 1354.271,181.709 1356.496,181.709 1356.496,170.033 1348.557,162.093 
					1346.982,163.665 				"/>
			</g>
		</g>
	</g>
	<g>
		<g>
			<g>
				<polygon fill="#C9C9C9" points="1343.174,227.111 1335.09,219.028 1335.09,204.968 1288.938,162.363 1287.429,163.999 
					1332.867,205.942 1332.867,219.949 1342.254,229.337 1389.294,229.337 1399.027,239.07 1399.027,235.924 1390.217,227.111 				
					"/>
			</g>
		</g>
	</g>
	<g>
		<g>
			<g>
				<polygon fill="#C9C9C9" points="1384.938,195.939 1384.938,219.919 1349.681,219.919 1349.681,222.144 1387.163,222.144 
					1387.163,195.017 1369.937,177.792 1368.363,179.364 				"/>
			</g>
		</g>
	</g>
	<g>
		<g>
			<g>
				<polygon fill="#C9C9C9" points="1347.911,114.665 1310.471,114.665 1310.471,116.89 1346.989,116.89 1361.57,131.469 
					1399.027,131.469 1399.027,129.244 1362.49,129.244 				"/>
			</g>
		</g>
	</g>
	<g>
		<g>
			<g>
				<polygon fill="#C9C9C9" points="1356.48,197.017 1385.807,197.017 1385.807,194.792 1357.402,194.792 1338.934,176.322 
					1337.361,177.896 				"/>
			</g>
		</g>
	</g>
	<g>
		<g>
			<g>
				<polygon fill="#C9C9C9" points="1351.115,204.202 1374.482,204.202 1374.482,201.978 1352.038,201.978 1339.922,189.863 
					1338.348,191.436 				"/>
			</g>
		</g>
	</g>
	<g>
		<g>
			<g>
				<polygon fill="#C9C9C9" points="1347.984,212.796 1368.54,212.796 1368.54,210.571 1348.906,210.571 1317.674,179.339 
					1316.1,180.911 				"/>
			</g>
		</g>
	</g>
	<g>
		<g>
			<g>
				<polygon fill="#C9C9C9" points="1284.74,202.889 1271.649,189.801 1271.649,174.611 1269.424,174.611 1269.424,190.723 
					1282.514,203.813 1282.514,216.516 1321.697,255.699 1324.846,255.699 1284.74,215.595 				"/>
			</g>
		</g>
	</g>
	<g>
		<g>
			<g>
				<polygon fill="#C9C9C9" points="1275.169,208.011 1262.266,194.331 1262.266,158.25 1260.042,158.25 1260.042,195.216 
					1272.945,208.895 1272.945,222.068 1306.574,255.699 1309.721,255.699 1275.169,221.148 				"/>
			</g>
		</g>
	</g>
	<g>
		<g>
			<g>
				<polygon fill="#C9C9C9" points="1266.161,211.136 1253.318,198.292 1253.318,177.895 1251.093,177.895 1251.093,199.215 
					1263.937,212.058 1263.937,225.048 1294.587,255.699 1297.734,255.699 1266.161,224.126 				"/>
			</g>
		</g>
	</g>
	<g>
		<g>
			<g>
				
					<rect x="1292.992" y="187.97" transform="matrix(-0.7069 0.7073 -0.7073 -0.7069 2350.3594 -573.968)" fill="#C9C9C9" width="2.226" height="24.07"/>
			</g>
		</g>
	</g>
	<g>
		<g>
			<g>
				<rect x="1235.004" y="158.921" fill="#C9C9C9" width="2.225" height="96.778"/>
			</g>
		</g>
	</g>
	<g>
		<g>
			<g>
				<rect x="1243.726" y="210.139" fill="#C9C9C9" width="2.224" height="45.561"/>
			</g>
		</g>
	</g>
	<g>
		<g>
			<g>
				<g>
					<path fill="#C9C9C9" d="M1251.041,218.072c0,2.396,1.948,4.343,4.344,4.343c2.395,0,4.343-1.947,4.343-4.343
						c0-2.395-1.948-4.344-4.343-4.344C1252.989,213.729,1251.041,215.678,1251.041,218.072z M1257.503,218.072
						c0,1.169-0.951,2.118-2.118,2.118c-1.168,0-2.119-0.949-2.119-2.118c0-1.168,0.951-2.117,2.119-2.117
						C1256.552,215.955,1257.503,216.904,1257.503,218.072z"/>
				</g>
			</g>
		</g>
	</g>
	<g>
		<g>
			<g>
				<rect x="1254.271" y="220.604" fill="#C9C9C9" width="2.225" height="35.096"/>
			</g>
		</g>
	</g>
	<g>
		<g>
			<g>
				<g>
					<path fill="#C9C9C9" d="M1260.516,236.813c0,2.396,1.948,4.343,4.344,4.343c2.394,0,4.341-1.947,4.341-4.343
						s-1.947-4.343-4.341-4.343C1262.464,232.47,1260.516,234.417,1260.516,236.813z M1266.977,236.813
						c0,1.168-0.949,2.116-2.117,2.116c-1.17,0-2.118-0.948-2.118-2.116c0-1.169,0.948-2.117,2.118-2.117
						C1266.027,234.695,1266.977,235.644,1266.977,236.813z"/>
				</g>
			</g>
		</g>
	</g>
	<g>
		<g>
			<g>
				<rect x="1263.746" y="239.344" fill="#C9C9C9" width="2.225" height="16.355"/>
			</g>
		</g>
	</g>
	<g>
		<g>
			<g>
				<rect x="1226.535" y="210.257" fill="#C9C9C9" width="2.227" height="45.442"/>
			</g>
		</g>
	</g>
	<g>
		<g>
			<g>
				<g>
					<path fill="#C9C9C9" d="M1323.173,92.79c0,2.396,1.948,4.344,4.344,4.344c2.395,0,4.343-1.948,4.343-4.344
						s-1.948-4.343-4.343-4.343C1325.121,88.447,1323.173,90.395,1323.173,92.79z M1329.635,92.79c0,1.168-0.95,2.117-2.118,2.117
						s-2.117-0.949-2.117-2.117c0-1.167,0.949-2.116,2.117-2.116S1329.635,91.623,1329.635,92.79z"/>
				</g>
			</g>
		</g>
	</g>
	<g>
		<g>
			<g>
				<g>
					<path fill="#C9C9C9" d="M1231.772,29.446c0,2.396,1.948,4.341,4.344,4.341c2.395,0,4.343-1.946,4.343-4.341
						c0-2.395-1.948-4.344-4.343-4.344C1233.721,25.102,1231.772,27.051,1231.772,29.446z M1238.234,29.446
						c0,1.168-0.951,2.118-2.118,2.118c-1.168,0-2.119-0.949-2.119-2.118c0-1.168,0.951-2.118,2.119-2.118
						C1237.283,27.328,1238.234,28.278,1238.234,29.446z"/>
				</g>
			</g>
		</g>
	</g>
	<g>
		<g>
			<g>
				<g>
					<path fill="#C9C9C9" d="M1303.596,54.966c0,2.396,1.949,4.343,4.342,4.343c2.396,0,4.344-1.947,4.344-4.343
						s-1.947-4.343-4.344-4.343C1305.545,50.623,1303.596,52.57,1303.596,54.966z M1310.057,54.966c0,1.168-0.951,2.118-2.119,2.118
						c-1.167,0-2.117-0.95-2.117-2.118s0.95-2.117,2.117-2.117C1309.105,52.849,1310.057,53.798,1310.057,54.966z"/>
				</g>
			</g>
		</g>
	</g>
	<g>
		<g>
			<g>
				<g>
					<path fill="#C9C9C9" d="M1303.596,69.545c0,2.396,1.949,4.345,4.342,4.345c2.396,0,4.344-1.949,4.344-4.345
						c0-2.394-1.947-4.342-4.344-4.342C1305.545,65.203,1303.596,67.151,1303.596,69.545z M1310.057,69.545
						c0,1.168-0.951,2.118-2.119,2.118c-1.167,0-2.117-0.95-2.117-2.118s0.95-2.117,2.117-2.117
						C1309.105,67.428,1310.057,68.377,1310.057,69.545z"/>
				</g>
			</g>
		</g>
	</g>
	<g>
		<g>
			<g>
				<g>
					<path fill="#C9C9C9" d="M1315.997,61.91c0,2.394,1.95,4.341,4.342,4.341c2.397,0,4.345-1.947,4.345-4.341
						c0-2.396-1.947-4.345-4.345-4.345C1317.947,57.565,1315.997,59.515,1315.997,61.91z M1322.457,61.91
						c0,1.166-0.948,2.117-2.118,2.117c-1.166,0-2.116-0.951-2.116-2.117c0-1.169,0.95-2.118,2.116-2.118
						C1321.509,59.792,1322.457,60.741,1322.457,61.91z"/>
				</g>
			</g>
		</g>
	</g>
	<g>
		<g>
			<g>
				<g>
					<path fill="#C9C9C9" d="M1313.618,48.023c0,2.395,1.948,4.342,4.343,4.342c2.396,0,4.343-1.947,4.343-4.342
						s-1.947-4.344-4.343-4.344C1315.566,43.68,1313.618,45.629,1313.618,48.023z M1320.078,48.023c0,1.169-0.949,2.117-2.117,2.117
						s-2.118-0.948-2.118-2.117s0.95-2.117,2.118-2.117S1320.078,46.854,1320.078,48.023z"/>
				</g>
			</g>
		</g>
	</g>
	<g>
		<g>
			<g>
				<g>
					<path fill="#C9C9C9" d="M1318.193,32.296c0,2.395,1.948,4.344,4.343,4.344c2.396,0,4.344-1.949,4.344-4.344
						c0-2.394-1.948-4.341-4.344-4.341C1320.142,27.955,1318.193,29.902,1318.193,32.296z M1324.653,32.296
						c0,1.168-0.949,2.118-2.117,2.118c-1.167,0-2.118-0.949-2.118-2.118c0-1.168,0.951-2.118,2.118-2.118
						C1323.704,30.179,1324.653,31.128,1324.653,32.296z"/>
				</g>
			</g>
		</g>
	</g>
	<g>
		<g>
			<g>
				<g>
					<path fill="#C9C9C9" d="M1304.722,22.715c0,2.394,1.947,4.343,4.341,4.343c2.396,0,4.345-1.949,4.345-4.343
						c0-2.395-1.949-4.342-4.345-4.342C1306.669,18.373,1304.722,20.32,1304.722,22.715z M1311.182,22.715
						c0,1.168-0.949,2.118-2.119,2.118c-1.166,0-2.116-0.95-2.116-2.118c0-1.168,0.95-2.118,2.116-2.118
						C1310.232,20.597,1311.182,21.547,1311.182,22.715z"/>
				</g>
			</g>
		</g>
	</g>
	<g>
		<g>
			<g>
				<g>
					<path fill="#C9C9C9" d="M1281.869,23.842c0,2.394,1.947,4.343,4.344,4.343c2.393,0,4.341-1.949,4.341-4.343
						c0-2.396-1.948-4.343-4.341-4.343C1283.816,19.5,1281.869,21.447,1281.869,23.842z M1288.329,23.842
						c0,1.167-0.949,2.118-2.116,2.118c-1.168,0-2.118-0.951-2.118-2.118c0-1.168,0.95-2.119,2.118-2.119
						C1287.38,21.723,1288.329,22.674,1288.329,23.842z"/>
				</g>
			</g>
		</g>
	</g>
	<g>
		<g>
			<g>
				<g>
					<path fill="#C9C9C9" d="M1266.193,14.537c0,2.394,1.949,4.341,4.343,4.341c2.396,0,4.344-1.947,4.344-4.341
						c0-2.396-1.948-4.344-4.344-4.344C1268.143,10.193,1266.193,12.142,1266.193,14.537z M1272.655,14.537
						c0,1.167-0.951,2.118-2.119,2.118c-1.167,0-2.118-0.951-2.118-2.118c0-1.168,0.951-2.119,2.118-2.119
						C1271.704,12.418,1272.655,13.369,1272.655,14.537z"/>
				</g>
			</g>
		</g>
	</g>
	<g>
		<g>
			<g>
				<g>
					<path fill="#C9C9C9" d="M1247.862,10.66c0,2.394,1.947,4.342,4.343,4.342c2.394,0,4.342-1.949,4.342-4.342
						c0-2.396-1.948-4.344-4.342-4.344C1249.81,6.315,1247.862,8.264,1247.862,10.66z M1254.322,10.66
						c0,1.168-0.949,2.118-2.117,2.118c-1.167,0-2.118-0.95-2.118-2.118c0-1.168,0.951-2.118,2.118-2.118
						C1253.373,8.542,1254.322,9.491,1254.322,10.66z"/>
				</g>
			</g>
		</g>
	</g>
	<g>
		<g>
			<g>
				<g>
					<path fill="#C9C9C9" d="M1240.494-22.286c0,2.396,1.947,4.344,4.343,4.344c2.394,0,4.343-1.948,4.343-4.344
						c0-2.394-1.949-4.343-4.343-4.343C1242.441-26.629,1240.494-24.68,1240.494-22.286z M1246.955-22.286
						c0,1.168-0.95,2.119-2.118,2.119s-2.118-0.951-2.118-2.119c0-1.167,0.95-2.118,2.118-2.118S1246.955-23.453,1246.955-22.286z"
						/>
				</g>
			</g>
		</g>
	</g>
	<g>
		<g>
			<g>
				<g>
					<path fill="#C9C9C9" d="M1257.285,29.334c0,2.394,1.947,4.341,4.343,4.341s4.343-1.947,4.343-4.341
						c0-2.395-1.947-4.344-4.343-4.344S1257.285,26.939,1257.285,29.334z M1263.746,29.334c0,1.168-0.949,2.117-2.118,2.117
						c-1.168,0-2.117-0.948-2.117-2.117c0-1.168,0.949-2.118,2.117-2.118C1262.797,27.217,1263.746,28.167,1263.746,29.334z"/>
				</g>
			</g>
		</g>
	</g>
	<g>
		<g>
			<g>
				<g>
					<path fill="#C9C9C9" d="M1287.922-25.886c0,2.396,1.947,4.343,4.344,4.343c2.393,0,4.343-1.947,4.343-4.343
						s-1.95-4.344-4.343-4.344C1289.869-30.23,1287.922-28.282,1287.922-25.886z M1294.384-25.886c0,1.168-0.95,2.118-2.118,2.118
						c-1.169,0-2.117-0.95-2.117-2.118s0.948-2.118,2.117-2.118C1293.434-28.004,1294.384-27.054,1294.384-25.886z"/>
				</g>
			</g>
		</g>
	</g>
	<g>
		<g>
			<g>
				<g>
					<path fill="#C9C9C9" d="M1298.26-7.885c0,2.396,1.949,4.341,4.343,4.341c2.396,0,4.344-1.946,4.344-4.341
						c0-2.395-1.948-4.344-4.344-4.344C1300.209-12.229,1298.26-10.28,1298.26-7.885z M1304.722-7.885
						c0,1.168-0.951,2.117-2.119,2.117c-1.167,0-2.118-0.948-2.118-2.117c0-1.168,0.951-2.118,2.118-2.118
						C1303.771-10.002,1304.722-9.053,1304.722-7.885z"/>
				</g>
			</g>
		</g>
	</g>
	<g>
		<g>
			<g>
				<g>
					<path fill="#C9C9C9" d="M1309.389-36.226c0,2.396,1.947,4.344,4.342,4.344c2.396,0,4.345-1.947,4.345-4.344
						c0-2.394-1.949-4.341-4.345-4.341C1311.336-40.567,1309.389-38.62,1309.389-36.226z M1315.849-36.226
						c0,1.169-0.949,2.121-2.118,2.121c-1.168,0-2.117-0.951-2.117-2.121c0-1.166,0.949-2.118,2.117-2.118
						C1314.899-38.343,1315.849-37.391,1315.849-36.226z"/>
				</g>
			</g>
		</g>
	</g>
	<g>
		<g>
			<g>
				<g>
					<path fill="#C9C9C9" d="M1300.556-25.476c0,2.394,1.947,4.342,4.344,4.342c2.396,0,4.341-1.949,4.341-4.342
						c0-2.396-1.945-4.343-4.341-4.343C1302.503-29.819,1300.556-27.872,1300.556-25.476z M1307.016-25.476
						c0,1.167-0.948,2.118-2.116,2.118s-2.118-0.951-2.118-2.118c0-1.168,0.95-2.119,2.118-2.119S1307.016-26.644,1307.016-25.476z"
						/>
				</g>
			</g>
		</g>
	</g>
	<g>
		<g>
			<g>
				<g>
					<path fill="#C9C9C9" d="M1278.271-3.598c0,2.395,1.947,4.342,4.343,4.342c2.394,0,4.343-1.947,4.343-4.342
						c0-2.396-1.949-4.343-4.343-4.343C1280.219-7.941,1278.271-5.994,1278.271-3.598z M1284.732-3.598
						c0,1.168-0.95,2.119-2.118,2.119c-1.167,0-2.118-0.951-2.118-2.119c0-1.167,0.951-2.118,2.118-2.118
						C1283.782-5.716,1284.732-4.765,1284.732-3.598z"/>
				</g>
			</g>
		</g>
	</g>
	<g>
		<g>
			<g>
				<polygon fill="#C9C9C9" points="1343.534,53.854 1310.471,53.854 1310.471,56.078 1344.456,56.078 1358.342,42.192 
					1399.027,42.192 1399.027,39.969 1357.42,39.969 				"/>
			</g>
		</g>
	</g>
	<g>
		<g>
			<g>
				<polygon fill="#C9C9C9" points="1345.472,60.797 1322.877,60.797 1322.877,63.021 1346.394,63.021 1360.279,49.134 
					1399.027,49.134 1399.027,46.911 1359.359,46.911 				"/>
			</g>
		</g>
	</g>
	<g>
		<g>
			<g>
				<polygon fill="#C9C9C9" points="1340.081,46.651 1320.339,46.651 1320.339,48.876 1341.003,48.876 1355.242,34.637 
					1399.027,34.637 1399.027,32.411 1354.32,32.411 				"/>
			</g>
		</g>
	</g>
	<g>
		<g>
			<g>
				<polygon fill="#C9C9C9" points="1392.682,-67.169 1332.623,-67.169 1293.74,-28.287 1295.313,-26.713 1333.545,-64.944 
					1393.603,-64.944 1398.776,-70.118 1395.63,-70.118 				"/>
			</g>
		</g>
	</g>
	<g>
		<g>
			<g>
				<polygon fill="#C9C9C9" points="1395.877,-60.389 1335.818,-60.389 1314.716,-39.283 1316.288,-37.711 1336.742,-58.163 
					1396.8,-58.163 1399.027,-60.392 1399.027,-63.538 				"/>
			</g>
		</g>
	</g>
	<g>
		<g>
			<g>
				<g>
					<path fill="#C9C9C9" d="M1356.073,26.104c0,2.396,1.947,4.343,4.341,4.343c2.397,0,4.345-1.947,4.345-4.343
						c0-2.395-1.947-4.344-4.345-4.344C1358.021,21.76,1356.073,23.708,1356.073,26.104z M1362.534,26.104
						c0,1.168-0.95,2.118-2.12,2.118c-1.166,0-2.116-0.95-2.116-2.118c0-1.168,0.95-2.118,2.116-2.118
						C1361.584,23.986,1362.534,24.936,1362.534,26.104z"/>
				</g>
			</g>
		</g>
	</g>
	<g>
		<g>
			<g>
				<g>
					<path fill="#C9C9C9" d="M1341.602,23.842c0,2.394,1.948,4.343,4.343,4.343c2.396,0,4.343-1.949,4.343-4.343
						c0-2.396-1.947-4.343-4.343-4.343C1343.55,19.5,1341.602,21.447,1341.602,23.842z M1348.063,23.842
						c0,1.167-0.951,2.118-2.119,2.118c-1.169,0-2.118-0.951-2.118-2.118c0-1.168,0.949-2.119,2.118-2.119
						C1347.112,21.723,1348.063,22.674,1348.063,23.842z"/>
				</g>
			</g>
		</g>
	</g>
	<g>
		<g>
			<g>
				<g>
					<path fill="#C9C9C9" d="M1331.738,9.975c0,2.394,1.948,4.343,4.344,4.343c2.395,0,4.342-1.949,4.342-4.343
						c0-2.395-1.947-4.342-4.342-4.342C1333.687,5.632,1331.738,7.58,1331.738,9.975z M1338.2,9.975c0,1.167-0.95,2.118-2.118,2.118
						s-2.117-0.951-2.117-2.118c0-1.168,0.949-2.116,2.117-2.116S1338.2,8.807,1338.2,9.975z"/>
				</g>
			</g>
		</g>
	</g>
	<g>
		<g>
			<g>
				<g>
					<path fill="#C9C9C9" d="M1310.445,6.61c0,2.396,1.948,4.343,4.344,4.343c2.395,0,4.342-1.947,4.342-4.343
						c0-2.395-1.947-4.342-4.342-4.342C1312.394,2.268,1310.445,4.215,1310.445,6.61z M1316.907,6.61
						c0,1.167-0.95,2.118-2.118,2.118s-2.117-0.951-2.117-2.118c0-1.167,0.949-2.116,2.117-2.116S1316.907,5.443,1316.907,6.61z"/>
				</g>
			</g>
		</g>
	</g>
	<g>
		<g>
			<g>
				<g>
					<path fill="#C9C9C9" d="M1366.91-26.361c0,2.395,1.949,4.344,4.343,4.344c2.396,0,4.343-1.949,4.343-4.344
						c0-2.394-1.947-4.341-4.343-4.341C1368.859-30.702,1366.91-28.755,1366.91-26.361z M1373.372-26.361
						c0,1.168-0.951,2.118-2.119,2.118c-1.167,0-2.118-0.95-2.118-2.118c0-1.168,0.951-2.118,2.118-2.118
						C1372.421-28.479,1373.372-27.529,1373.372-26.361z"/>
				</g>
			</g>
		</g>
	</g>
	<g>
		<g>
			<g>
				<g>
					<path fill="#C9C9C9" d="M1370.141,26.937c0,2.396,1.947,4.344,4.342,4.344c2.396,0,4.344-1.948,4.344-4.344
						c0-2.394-1.947-4.341-4.344-4.341C1372.088,22.595,1370.141,24.542,1370.141,26.937z M1376.602,26.937
						c0,1.168-0.951,2.118-2.119,2.118c-1.167,0-2.116-0.95-2.116-2.118s0.949-2.118,2.116-2.118
						C1375.65,24.819,1376.602,25.769,1376.602,26.937z"/>
				</g>
			</g>
		</g>
	</g>
	<g>
		<g>
			<g>
				<g>
					<path fill="#C9C9C9" d="M1362.534,8.515c0,2.395,1.947,4.342,4.342,4.342c2.396,0,4.343-1.947,4.343-4.342
						c0-2.394-1.947-4.343-4.343-4.343C1364.481,4.172,1362.534,6.121,1362.534,8.515z M1368.994,8.515
						c0,1.168-0.948,2.119-2.118,2.119c-1.166,0-2.117-0.951-2.117-2.119c0-1.168,0.951-2.118,2.117-2.118
						C1368.046,6.397,1368.994,7.347,1368.994,8.515z"/>
				</g>
			</g>
		</g>
	</g>
	<g>
		<g>
			<g>
				<g>
					<path fill="#C9C9C9" d="M1373.372-17.768c0,2.396,1.947,4.343,4.341,4.343c2.396,0,4.344-1.947,4.344-4.343
						c0-2.395-1.948-4.342-4.344-4.342C1375.319-22.11,1373.372-20.163,1373.372-17.768z M1379.831-17.768
						c0,1.168-0.95,2.118-2.118,2.118s-2.117-0.95-2.117-2.118s0.949-2.118,2.117-2.118S1379.831-18.936,1379.831-17.768z"/>
				</g>
			</g>
		</g>
	</g>
	<g>
		<g>
			<g>
				<g>
					<path fill="#C9C9C9" d="M1332.531-3.035c0,2.395,1.947,4.344,4.343,4.344c2.396,0,4.343-1.949,4.343-4.344
						c0-2.394-1.946-4.341-4.343-4.341C1334.479-7.376,1332.531-5.429,1332.531-3.035z M1338.993-3.035
						c0,1.168-0.949,2.118-2.119,2.118c-1.167,0-2.116-0.95-2.116-2.118s0.949-2.118,2.116-2.118
						C1338.044-5.152,1338.993-4.203,1338.993-3.035z"/>
				</g>
			</g>
		</g>
	</g>
	<g>
		<g>
			<g>
				<g>
					<path fill="#C9C9C9" d="M1342.47-35.708c0,2.396,1.948,4.344,4.344,4.344c2.394,0,4.341-1.949,4.341-4.344
						c0-2.394-1.947-4.343-4.341-4.343C1344.418-40.051,1342.47-38.103,1342.47-35.708z M1348.932-35.708
						c0,1.168-0.95,2.118-2.118,2.118s-2.118-0.95-2.118-2.118s0.95-2.118,2.118-2.118S1348.932-36.876,1348.932-35.708z"/>
				</g>
			</g>
		</g>
	</g>
	<g>
		<g>
			<g>
				<polygon fill="#C9C9C9" points="1391.721,-7.421 1361.243,23.055 1362.817,24.628 1393.943,-6.5 1393.943,-35.541 
					1399.027,-40.623 1399.027,-43.77 1391.721,-36.462 				"/>
			</g>
		</g>
	</g>
	<g>
		<g>
			<g>
				<rect x="1376.867" y="25.825" fill="#C9C9C9" width="22.16" height="2.225"/>
			</g>
		</g>
	</g>
	<g>
		<g>
			<g>
				<polygon fill="#C9C9C9" points="1398.802,-5.305 1385.443,8.054 1385.443,23.012 1399.027,23.012 1399.027,20.788 
					1387.666,20.788 1387.666,8.976 1399.027,-2.384 1399.027,-33.681 1398.802,-33.454 				"/>
			</g>
		</g>
	</g>
	<g>
		<g>
			<g>
				<polygon fill="#C9C9C9" points="1391.869,18.363 1399.027,18.363 1399.027,16.138 1394.096,16.138 1394.096,9.996 
					1399.027,5.063 1399.027,1.918 1391.869,9.073 				"/>
			</g>
		</g>
	</g>
	<g>
		<g>
			<g>
				<polygon fill="#C9C9C9" points="1339.616,-52.962 1323.66,-37.008 1323.66,-30.225 1303.547,-10.109 1305.12,-8.537 
					1325.885,-29.302 1325.885,-36.084 1340.537,-50.736 1389.36,-50.736 1398.308,-59.685 1396.733,-61.257 1388.438,-52.962 				
					"/>
			</g>
		</g>
	</g>
	<g>
		<g>
			<g>
				<polygon fill="#C9C9C9" points="1312.031,21.602 1312.031,23.828 1336.743,23.828 1362.49,-1.922 1378.929,-1.922 
					1378.929,-4.145 1361.57,-4.145 1335.82,21.602 				"/>
			</g>
		</g>
	</g>
	<g>
		<g>
			<g>
				<polygon fill="#C9C9C9" points="1340.695,33.409 1347.795,40.511 1349.369,38.938 1341.615,31.185 1325.241,31.185 
					1325.241,33.409 				"/>
			</g>
		</g>
	</g>
	<g>
		<g>
			<g>
				<polygon fill="#C9C9C9" points="1346.982,21.655 1348.557,23.231 1356.496,15.29 1356.496,3.613 1354.271,3.613 
					1354.271,14.367 				"/>
			</g>
		</g>
	</g>
	<g>
		<g>
			<g>
				<polygon fill="#C9C9C9" points="1389.294,-44.013 1342.254,-44.013 1332.867,-34.628 1332.867,-20.619 1287.429,21.324 
					1288.938,22.959 1334.733,-19.314 1335.09,-19.646 1335.09,-33.706 1343.174,-41.79 1390.217,-41.79 1399.027,-50.601 
					1399.027,-53.748 				"/>
			</g>
		</g>
	</g>
	<g>
		<g>
			<g>
				<polygon fill="#C9C9C9" points="1384.938,-34.595 1384.938,-10.618 1368.363,5.958 1369.937,7.531 1387.163,-9.697 
					1387.163,-36.82 1349.681,-36.82 1349.681,-34.595 				"/>
			</g>
		</g>
	</g>
	<g>
		<g>
			<g>
				<polygon fill="#C9C9C9" points="1346.989,68.432 1310.471,68.432 1310.471,70.658 1347.911,70.658 1362.49,56.078 
					1399.027,56.078 1399.027,53.854 1361.57,53.854 				"/>
			</g>
		</g>
	</g>
	<g>
		<g>
			<g>
				<polygon fill="#C9C9C9" points="1338.934,9 1357.402,-9.468 1385.807,-9.468 1385.807,-11.695 1356.48,-11.695 1337.361,7.426 
									"/>
			</g>
		</g>
	</g>
	<g>
		<g>
			<g>
				<polygon fill="#C9C9C9" points="1339.922,-4.54 1352.038,-16.656 1374.482,-16.656 1374.482,-18.88 1351.115,-18.88 
					1338.348,-6.113 				"/>
			</g>
		</g>
	</g>
	<g>
		<g>
			<g>
				<polygon fill="#C9C9C9" points="1317.674,5.984 1348.906,-25.248 1368.54,-25.248 1368.54,-27.473 1347.984,-27.473 
					1316.1,4.411 				"/>
			</g>
		</g>
	</g>
	<g>
		<g>
			<g>
				<polygon fill="#C9C9C9" points="1282.514,-31.192 1282.514,-18.489 1269.424,-5.399 1269.424,10.711 1271.649,10.711 
					1271.649,-4.478 1284.74,-17.569 1284.74,-30.272 1324.586,-70.118 1321.439,-70.118 				"/>
			</g>
		</g>
	</g>
	<g>
		<g>
			<g>
				<polygon fill="#C9C9C9" points="1272.945,-36.746 1272.945,-23.573 1260.042,-9.893 1260.042,27.072 1262.266,27.072 
					1262.266,-9.009 1275.169,-22.688 1275.169,-35.824 1309.463,-70.118 1306.316,-70.118 				"/>
			</g>
		</g>
	</g>
	<g>
		<g>
			<g>
				<polygon fill="#C9C9C9" points="1263.937,-39.726 1263.937,-26.734 1251.093,-13.891 1251.093,7.429 1253.318,7.429 
					1253.318,-12.971 1266.161,-25.813 1266.161,-38.803 1297.477,-70.118 1294.329,-70.118 				"/>
			</g>
		</g>
	</g>
	<g>
		<g>
			<g>
				
					<rect x="1282.069" y="-15.794" transform="matrix(-0.7071 0.7071 -0.7071 -0.7071 2198.7798 -940.1461)" fill="#C9C9C9" width="24.071" height="2.225"/>
			</g>
		</g>
	</g>
	<g>
		<g>
			<g>
				<rect x="1235.004" y="-70.118" fill="#C9C9C9" width="2.225" height="96.519"/>
			</g>
		</g>
	</g>
	<g>
		<g>
			<g>
				<rect x="1243.726" y="-70.118" fill="#C9C9C9" width="2.224" height="45.303"/>
			</g>
		</g>
	</g>
	<g>
		<g>
			<g>
				<g>
					<path fill="#C9C9C9" d="M1251.041-32.75c0,2.394,1.948,4.343,4.344,4.343c2.395,0,4.343-1.949,4.343-4.343
						c0-2.396-1.948-4.344-4.343-4.344C1252.989-37.094,1251.041-35.145,1251.041-32.75z M1257.503-32.75
						c0,1.167-0.951,2.118-2.118,2.118c-1.168,0-2.119-0.951-2.119-2.118c0-1.168,0.951-2.119,2.119-2.119
						C1256.552-34.869,1257.503-33.917,1257.503-32.75z"/>
				</g>
			</g>
		</g>
	</g>
	<g>
		<g>
			<g>
				<rect x="1254.271" y="-70.118" fill="#C9C9C9" width="2.225" height="34.836"/>
			</g>
		</g>
	</g>
	<g>
		<g>
			<g>
				<g>
					<path fill="#C9C9C9" d="M1260.516-51.49c0,2.394,1.948,4.343,4.344,4.343c2.394,0,4.341-1.949,4.341-4.343
						c0-2.395-1.947-4.342-4.341-4.342C1262.464-55.832,1260.516-53.885,1260.516-51.49z M1266.977-51.49
						c0,1.167-0.949,2.118-2.117,2.118c-1.17,0-2.118-0.951-2.118-2.118c0-1.168,0.948-2.119,2.118-2.119
						C1266.027-53.609,1266.977-52.658,1266.977-51.49z"/>
				</g>
			</g>
		</g>
	</g>
	<g>
		<g>
			<g>
				<rect x="1263.746" y="-70.118" fill="#C9C9C9" width="2.225" height="16.098"/>
			</g>
		</g>
	</g>
	<g>
		<g>
			<g>
				<g>
					<path fill="#C9C9C9" d="M1370.35,101.384c0,2.394,1.948,4.342,4.344,4.342c2.395,0,4.343-1.948,4.343-4.342
						c0-2.396-1.948-4.345-4.343-4.345C1372.298,97.039,1370.35,98.988,1370.35,101.384z M1376.812,101.384
						c0,1.168-0.951,2.117-2.118,2.117c-1.169,0-2.119-0.949-2.119-2.117s0.95-2.118,2.119-2.118
						C1375.86,99.266,1376.812,100.216,1376.812,101.384z"/>
				</g>
			</g>
		</g>
	</g>
	<g>
		<g>
			<g>
				<g>
					<path fill="#C9C9C9" d="M1369.768,84.194c0,2.396,1.949,4.343,4.344,4.343s4.343-1.947,4.343-4.343
						c0-2.394-1.948-4.342-4.343-4.342S1369.768,81.801,1369.768,84.194z M1376.229,84.194c0,1.169-0.95,2.118-2.118,2.118
						s-2.117-0.949-2.117-2.118s0.949-2.117,2.117-2.117S1376.229,83.025,1376.229,84.194z"/>
				</g>
			</g>
		</g>
	</g>
	<g>
		<g>
			<g>
				<rect x="1329.74" y="91.549" fill="#C9C9C9" width="69.287" height="2.225"/>
			</g>
		</g>
	</g>
	<g>
		<g>
			<g>
				<rect x="1377.223" y="100.271" fill="#C9C9C9" width="21.805" height="2.226"/>
			</g>
		</g>
	</g>
	<g>
		<g>
			<g>
				<rect x="1377.343" y="83.082" fill="#C9C9C9" width="21.685" height="2.225"/>
			</g>
		</g>
	</g>
	<g>
		<g>
			<g>
				<polygon fill="#C9C9C9" points="1355.886,83.52 1314.148,83.52 1314.148,85.745 1356.809,85.745 1367.764,74.788 
					1399.027,74.788 1399.027,72.564 1366.843,72.564 				"/>
			</g>
		</g>
	</g>
	<g>
		<g>
			<g>
				<polygon fill="#C9C9C9" points="1352.938,76.35 1315.466,76.35 1315.466,78.574 1353.859,78.574 1365.98,66.454 
					1399.027,66.454 1399.027,64.229 1365.058,64.229 				"/>
			</g>
		</g>
	</g>
	<g>
		<g>
			<g>
				<polygon fill="#C9C9C9" points="1356.809,99.221 1314.148,99.221 1314.148,101.444 1355.886,101.444 1366.843,112.4 
					1399.027,112.4 1399.027,110.176 1367.764,110.176 				"/>
			</g>
		</g>
	</g>
	<g>
		<g>
			<g>
				<polygon fill="#C9C9C9" points="1353.859,106.39 1315.466,106.39 1315.466,108.616 1352.938,108.616 1365.058,120.735 
					1399.027,120.735 1399.027,118.51 1365.98,118.51 				"/>
			</g>
		</g>
	</g>
	<g>
		<g>
			<g>
				<g>
					<path fill="#C9C9C9" d="M1271.72-60.042c0,2.394,1.947,4.341,4.343,4.341c2.394,0,4.343-1.947,4.343-4.341
						c0-2.395-1.949-4.344-4.343-4.344C1273.667-64.386,1271.72-62.438,1271.72-60.042z M1278.18-60.042
						c0,1.167-0.949,2.118-2.117,2.118s-2.119-0.951-2.119-2.118c0-1.169,0.951-2.119,2.119-2.119S1278.18-61.212,1278.18-60.042z"
						/>
				</g>
			</g>
		</g>
	</g>
	<g>
		<g>
			<g>
				<polygon fill="#C9C9C9" points="1277.472,-61.654 1279.045,-60.08 1289.083,-70.118 1285.937,-70.118 				"/>
			</g>
		</g>
	</g>
	<g>
		<g>
			<g>
				<g>
					<path fill="#C9C9C9" d="M1271.586,245.803c0,2.394,1.948,4.342,4.343,4.342c2.396,0,4.344-1.948,4.344-4.342
						c0-2.396-1.948-4.345-4.344-4.345C1273.534,241.458,1271.586,243.407,1271.586,245.803z M1278.048,245.803
						c0,1.166-0.951,2.117-2.119,2.117c-1.167,0-2.118-0.951-2.118-2.117c0-1.169,0.951-2.12,2.118-2.12
						C1277.097,243.683,1278.048,244.634,1278.048,245.803z"/>
				</g>
			</g>
		</g>
	</g>
	<g>
		<g>
			<g>
				<polygon fill="#C9C9C9" points="1277.339,247.413 1285.625,255.699 1288.773,255.699 1278.911,245.84 				"/>
			</g>
		</g>
	</g>
	<g>
		<g>
			<polygon fill="#C9C9C9" points="1281.545,127.739 1283.581,127.739 1283.581,137.498 1292.252,146.169 1290.813,147.609 
				1281.545,138.341 			"/>
		</g>
		<g>
			<g>
				<g>
					<g>
						<path fill="#C9C9C9" d="M1278.221,124.283c0,2.395,1.947,4.344,4.342,4.344s4.344-1.949,4.344-4.344s-1.949-4.343-4.344-4.343
							S1278.221,121.889,1278.221,124.283z M1284.682,124.283c0,1.168-0.95,2.117-2.119,2.117c-1.166,0-2.118-0.949-2.118-2.117
							c0-1.167,0.952-2.118,2.118-2.118C1283.731,122.165,1284.682,123.116,1284.682,124.283z"/>
					</g>
				</g>
			</g>
		</g>
		<g>
			<g>
				<g>
					<g>
						<path fill="#C9C9C9" d="M1288.821,148.968c0,2.395,1.947,4.344,4.341,4.344c2.396,0,4.344-1.949,4.344-4.344
							s-1.948-4.343-4.344-4.343C1290.769,144.625,1288.821,146.573,1288.821,148.968z M1295.281,148.968
							c0,1.168-0.951,2.117-2.119,2.117c-1.167,0-2.116-0.949-2.116-2.117c0-1.167,0.949-2.118,2.116-2.118
							C1294.33,146.85,1295.281,147.801,1295.281,148.968z"/>
					</g>
				</g>
			</g>
		</g>
	</g>
	<g>
		<g>
			<g>
				<g>
					<g>
						<path fill="#C9C9C9" d="M1308.095,149.646c0,2.396,1.949,4.344,4.343,4.344c2.396,0,4.343-1.948,4.343-4.344
							c0-2.394-1.947-4.343-4.343-4.343C1310.044,145.304,1308.095,147.253,1308.095,149.646z M1314.556,149.646
							c0,1.168-0.95,2.118-2.118,2.118c-1.167,0-2.118-0.95-2.118-2.118c0-1.167,0.951-2.117,2.118-2.117
							C1313.605,147.529,1314.556,148.479,1314.556,149.646z"/>
					</g>
				</g>
			</g>
		</g>
		<g>
			<g>
				<g>
					<g>
						<path fill="#C9C9C9" d="M1290.524,131.122c0,2.394,1.948,4.343,4.344,4.343c2.395,0,4.343-1.949,4.343-4.343
							c0-2.396-1.948-4.344-4.343-4.344C1292.473,126.778,1290.524,128.727,1290.524,131.122z M1296.986,131.122
							c0,1.167-0.95,2.118-2.118,2.118s-2.117-0.951-2.117-2.118c0-1.168,0.949-2.117,2.117-2.117
							S1296.986,129.954,1296.986,131.122z"/>
					</g>
				</g>
			</g>
		</g>
		<g>
			
				<rect x="1293.646" y="139.688" transform="matrix(-0.7071 -0.7071 0.7071 -0.7071 2125.5493 1161.8435)" fill="#C9C9C9" width="19.509" height="2.036"/>
		</g>
	</g>
</g>
</svg>
